<?xml version="1.0" standalone="no"?><!DOCTYPE svg PUBLIC "-//W3C//DTD SVG 1.1//EN" "http://www.w3.org/Graphics/SVG/1.1/DTD/svg11.dtd"><svg t="1590128221912" class="icon" viewBox="0 0 1024 1024" version="1.1" xmlns="http://www.w3.org/2000/svg" p-id="14095" xmlns:xlink="http://www.w3.org/1999/xlink" width="200" height="200"><defs><style type="text/css"></style></defs><path d="M487.603 102 102 488.001 102 922l820-820L487.603 102zM339.076 272.655c26.729 0.849 37.125 1.909 73.187 7.849l-4.03 19.728c-29.486-7-43.488-8.697-73.187-9.545L339.076 272.655zM254.65 633.705c-5.941-5.092-9.334-7.213-15.486-9.971 9.758-7.213 15.91-12.516 22.061-18.668 5.516-5.516 5.94-8.061 1.697-12.303l-32.456-32.457c-4.03 5.729-12.092 16.759-17.606 23.971-4.879 6.576-8.273 11.244-10.607 15.273l-15.486-11.666c1.485-1.485 2.334-2.334 3.183-3.183 6.788-6.788 19.729-22.698 29.274-35.639l-35.426-35.427-17.184 17.184c-6.151 6.151-10.606 11.031-15.061 17.184l-13.577-13.577c5.516-3.819 9.334-7.213 17.396-15.274l16.971-16.97-12.729-12.729c-8.273-8.273-12.304-11.879-18.031-15.91l14.637-14.637c4.031 5.728 7.426 9.546 15.91 18.031l12.729 12.729 13.152-13.152c6.364-6.364 8.061-8.486 11.879-13.577l13.152 13.152c-4.666 3.395-7.637 5.94-13.788 12.091l-12.94 12.94 33.305 33.305c7-10.395 10.396-15.485 20.153-30.76l10.819 10.819c-10.607 16.972-14.002 22.487-19.941 30.972l37.336 37.336c11.031 11.031 9.758 19.092-4.667 33.518C268.014 621.613 262.074 627.129 254.65 633.705zM307.259 688.86l-20.153 2.333c2.334-26.516 0.637-41.365-7.213-63.215l17.184-5.729C305.35 647.494 307.471 662.344 307.259 688.86zM304.289 576.854c4.666-19.518 5.516-30.548 4.242-46.246-1.061-12.091-3.606-23.122-7.849-33.305-13.364 1.061-21.425 2.333-42.639 6.151l-1.272-16.97c17.182-2.333 19.516-2.546 36.275-4.455-7.639-12.728-20.154-29.062-32.883-43.062l-15.697 15.698c-5.091 5.091-9.546 10.395-13.364 15.485l-14.001-14.001c5.303-3.606 9.97-7.849 15.697-13.577l15.91-15.91c-3.394-3.394-5.09-5.091-7.211-7.212-12.305-12.304-17.607-17.184-24.396-21.425l15.062-15.062c4.453 6.576 4.453 6.576 28.425 31.82l23.972-23.971c6.575-6.576 11.242-12.091 15.697-17.819 3.395 5.092 8.486 10.607 20.152 22.274 22.275 22.274 46.458 42.215 65.975 54.518 10.182 6.79 13.789 8.274 21.426 9.122-1.273-5.515-2.121-6.789-7.213-14.001-6.576-9.545-10.606-14.425-17.607-22.698 7.637-0.424 11.881-1.273 17.184-3.183 24.183 31.821 29.698 45.822 21.638 53.882-6.151 6.152-21.002 4.455-37.972-4.455-22.486-12.304-45.821-31.396-83.793-69.368l-28.002 28.002c21.213 24.184 28.637 34.153 39.031 53.033 16.336-1.485 34.154-1.909 58.338-1.909l1.484 18.88c-22.698-1.484-31.396-1.696-52.608-0.848 3.606 9.97 6.363 22.062 7.849 34.578 1.697 15.273 0.849 25.88-2.758 46.033C316.805 575.368 310.864 575.368 304.289 576.854zM359.231 635.614c-15.91-15.062-27.365-23.971-42.427-33.093l9.971-13.789c14.85 8.484 27.152 17.396 44.124 31.82L359.231 635.614zM408.871 585.551c-21.426-14.213-32.244-19.941-48.579-25.669l8.697-15.062c17.608 6.152 28.639 11.668 49.64 24.184L408.871 585.551zM470.814 527.002c-25.456-7.638-39.457-10.183-68.732-12.305l4.667-16.546c32.245 1.697 43.7 3.394 68.308 8.909L470.814 527.002zM514.087 485.425c-5.728-7.424-11.879-14.425-23.122-25.668L389.989 358.781c-11.031-11.031-16.759-16.334-25.244-22.698l16.334-16.334c5.939 7.637 11.455 13.576 22.911 25.032l100.975 100.976c12.092 12.092 18.457 18.032 25.456 23.334L514.087 485.425zM663.642 331.628c-7.212 7.212-8.062 8.061-19.94 18.668-7.424 6.576-7.637 6.788-13.364 12.092-9.335-6.789-11.668-7.849-18.88-11.244 14.637-10.818 25.88-20.365 35.639-30.123 11.242-11.243 12.304-13.576 7.424-18.455L505.178 153.223l-83.156 83.156c-8.699 8.698-13.152 13.577-18.244 20.366l-14.85-14.85c6.789-5.091 11.668-9.545 19.729-17.607l80.824-80.824c8.484-8.485 13.151-13.576 16.758-18.455 4.455 5.728 10.395 12.091 18.031 19.728l147.857 147.857c5.729 5.728 8.061 11.031 7.425 16.334C678.916 315.082 675.732 319.537 663.642 331.628z" p-id="14096" fill="#515151"></path></svg>