<?xml version="1.0" standalone="no"?><!DOCTYPE svg PUBLIC "-//W3C//DTD SVG 1.1//EN" "http://www.w3.org/Graphics/SVG/1.1/DTD/svg11.dtd"><svg t="1589352615594" class="icon" viewBox="0 0 1024 1024" version="1.1" xmlns="http://www.w3.org/2000/svg" p-id="2127" xmlns:xlink="http://www.w3.org/1999/xlink" width="200" height="200"><defs><style type="text/css"></style></defs><path d="M891.752918 15.511082c57.797246 0 104.531934 47.104 104.531934 105.085902v122.88c0 57.981902-46.734689 105.085902-104.531934 105.085901H131.239869c-57.797246 0-104.531934-47.104-104.531935-105.085901v-122.88C26.691148 62.615082 73.442623 15.494295 131.239869 15.494295h760.513049zM131.239869 85.21023c-19.18741 0-34.849574 15.779672-34.849574 35.369967v122.913573c0 19.590295 15.662164 35.369967 34.849574 35.369968h760.513049c19.18741 0 34.849574-15.779672 34.849574-35.369968V120.580197c0-19.590295-15.662164-35.369967-34.849574-35.369967H131.239869zM131.239869 683.444459c-19.18741 0-34.849574-15.779672-34.849574-35.369967v-122.913574c0-19.590295 15.662164-35.369967 34.849574-35.369967h760.513049c19.18741 0 34.849574 15.779672 34.849574 35.369967v122.913574c0 19.590295-15.662164 35.369967-34.849574 35.369967a34.849574 34.849574 0 1 0 0 69.699148c57.797246 0 104.531934-47.104 104.531934-105.085902v-122.88c0-57.981902-46.734689-105.085902-104.531934-105.085902H131.239869c-57.797246 0-104.531934 47.104-104.531935 105.085902v122.88c0 57.981902 46.734689 105.085902 104.531935 105.085902a34.849574 34.849574 0 0 0 0-69.699148z" fill="#424242" p-id="2128"></path><path d="M187.156984 842.26518c29.96459 95.853115 63.420852 143.779672 100.385573 143.779672H689.101639c52.509377 0 100.066623-47.926557 142.654951-143.779672l-90.296656 37.115804H270.100984l-82.944-37.099017z" fill="#86C9F8" p-id="2129"></path><path d="M477.754754 567.816393c-103.507934 0-188.432787 79.636984-197.783082 181.248-71.209967 3.944918-127.664262 63.286557-127.664262 135.805902 0 75.037377 60.483148 136.007344 135.235147 136.007344H689.101639c98.102557 0 177.504525-80.023082 177.504525-178.612459 0-98.57259-79.401967-178.612459-177.504525-178.612459-13.278426 0-26.388984 1.51082-39.113442 4.398164-34.799213-60.852459-99.798033-100.217705-172.233443-100.217705z m211.346885 165.535476c59.492721 0 107.822164 48.698754 107.822164 108.913311 0 60.231344-48.34623 108.930098-107.822164 108.930099H287.559344c-36.142164 0-65.552787-29.645639-65.552787-66.324984 0-36.696131 29.410623-66.308197 65.552787-66.308197 5.992918 0 11.985836 0.872918 17.995541 2.601968l50.494951 14.554229-6.244721-52.173639a132.733902 132.733902 0 0 1-0.97364-15.813246c0-71.982164 57.780459-130.215869 128.940066-130.215869 54.439869 0 102.500721 34.379541 121.033443 85.176656l12.808393 35.08459 34.110951-15.208918c13.597377-6.043279 28.252328-9.216 43.394098-9.216z" fill="#424242" p-id="2130"></path><path d="M239.951738 186.435148c0 19.388852-15.595016 35.101377-34.832787 35.101377a34.983869 34.983869 0 0 1-34.849574-35.101377c0-19.405639 15.611803-35.118164 34.849574-35.118164s34.832787 15.712525 34.832787 35.118164" fill="#8687F8" p-id="2131"></path><path d="M236.997246 585.090098c0 19.388852-15.611803 35.101377-34.849574 35.101377a34.983869 34.983869 0 0 1-34.832787-35.101377c0-19.405639 15.611803-35.118164 34.832787-35.118164 19.254557 0 34.849574 15.712525 34.849574 35.118164" fill="#424242" p-id="2132"></path><path d="M784.702951 221.536525H370.318689c-19.069902 0-34.530623-15.712525-34.530623-35.101377 0-19.405639 15.443934-35.118164 34.530623-35.118164h414.384262c19.069902 0 34.54741 15.712525 34.54741 35.118164 0 19.388852-15.477508 35.101377-34.54741 35.101377" fill="#8687F8" p-id="2133"></path></svg>